<svg data-logo="logo" xmlns="http://www.w3.org/2000/svg" viewBox="0 0 192 43">
        <g style="opacity: 1;" id="logogram" transform="translate(0, 1) rotate(0)"><path d="M20.3018 10.27C20.3018 15.7928 15.8246 20.27 10.3018 20.27H0.301758V10.27C0.301758 4.74714 4.7789 0.269989 10.3018 0.269989C15.8246 0.269989 20.3018 4.74714 20.3018 10.27Z" fill="#17CF97"></path><path d="M20.3018 30.27C20.3018 24.7471 24.7789 20.27 30.3018 20.27H40.3018V30.27C40.3018 35.7928 35.8246 40.27 30.3018 40.27C24.7789 40.27 20.3018 35.7928 20.3018 30.27Z" fill="#17CF97"></path><path d="M0.301758 30.27C0.301758 35.7928 4.7789 40.27 10.3018 40.27H20.3018V30.27C20.3018 24.7471 15.8246 20.27 10.3018 20.27C4.7789 20.27 0.301758 24.7471 0.301758 30.27Z" fill="#17CF97"></path><path d="M40.3018 10.27C40.3018 4.74714 35.8246 0.269989 30.3018 0.269989H20.3018V10.27C20.3018 15.7928 24.7789 20.27 30.3018 20.27C35.8246 20.27 40.3018 15.7928 40.3018 10.27Z" fill="#17CF97"></path></g>
        <g style="opacity: 1;" id="logotype" transform="translate(47, 1.5)"><path fill="#000000" d="M12.65 33L7.75 33L7.75 8.50L12.65 8.50L12.65 33ZM20.53 33L15.80 33L15.80 14.80L20.46 14.80L20.46 17.46Q21.89 14.38 26.02 14.38L26.02 14.38Q27.98 14.38 29.55 15.29Q31.13 16.20 32.04 17.88Q32.95 19.56 32.95 21.87L32.95 21.87L32.95 33L28.23 33L28.23 23.02Q28.23 20.64 27.14 19.58Q26.05 18.51 24.30 18.51L24.30 18.51Q22.80 18.51 21.66 19.58Q20.53 20.64 20.53 23.02L20.53 23.02L20.53 33ZM44.75 33L42.16 33Q39.46 33 38.03 31.67Q36.59 30.34 36.59 27.36L36.59 27.36L36.59 18.82L34.04 18.82L34.04 14.80L36.59 14.80L36.59 11.12L41.32 10.63L41.32 14.80L45.17 14.80L45.17 18.82L41.32 18.82L41.32 27.12Q41.32 28.80 42.79 28.80L42.79 28.80L44.75 28.80L44.75 33ZM54.97 33.45L54.97 33.45Q52.16 33.45 50.03 32.16Q47.90 30.86 46.72 28.71Q45.55 26.56 45.55 23.93L45.55 23.93Q45.55 21.31 46.77 19.12Q48 16.93 50.12 15.64Q52.23 14.34 54.97 14.34L54.97 14.34Q57.70 14.34 59.78 15.64Q61.86 16.93 63.03 19.12Q64.20 21.31 64.20 23.93L64.20 23.93Q64.20 24.32 64.17 24.74Q64.14 25.16 64.06 25.61L64.06 25.61L50.45 25.61Q50.84 27.23 52.01 28.24Q53.18 29.25 54.97 29.25L54.97 29.25Q56.51 29.25 57.64 28.55Q58.78 27.86 59.41 26.80L59.41 26.80L63.09 29.57Q62 31.29 59.83 32.37Q57.66 33.45 54.97 33.45ZM54.90 18.41L54.90 18.41Q53.22 18.41 52.03 19.42Q50.84 20.43 50.45 22.08L50.45 22.08L59.45 22.08Q59.06 20.57 57.85 19.49Q56.65 18.41 54.90 18.41ZM71.00 33L66.27 33L66.27 7.45L71.00 7.45L71.00 33ZM78.52 33L73.80 33L73.80 7.45L78.52 7.45L78.52 33ZM83.67 13.29L83.67 13.29Q82.48 13.29 81.65 12.47Q80.83 11.65 80.83 10.49L80.83 10.49Q80.83 9.37 81.65 8.55Q82.48 7.73 83.67 7.73L83.67 7.73Q84.89 7.73 85.70 8.55Q86.50 9.37 86.50 10.49L86.50 10.49Q86.50 11.68 85.70 12.49Q84.89 13.29 83.67 13.29ZM86.05 33L81.32 33L81.32 14.80L86.05 14.80L86.05 33ZM99.87 33L94.97 33L94.97 12.91L87.97 12.91L87.97 8.50L106.87 8.50L106.87 12.91L99.87 12.91L99.87 33ZM110.37 33L105.65 33L105.65 14.80L110.23 14.80L110.23 18.27Q110.69 16.30 112.09 15.27Q113.49 14.24 115.87 14.38L115.87 14.38L115.87 18.82L115.20 18.82Q113.17 18.82 111.77 20.12Q110.37 21.41 110.37 23.69L110.37 23.69L110.37 33ZM119.79 13.29L119.79 13.29Q118.60 13.29 117.77 12.47Q116.95 11.65 116.95 10.49L116.95 10.49Q116.95 9.37 117.77 8.55Q118.60 7.73 119.79 7.73L119.79 7.73Q121.01 7.73 121.82 8.55Q122.62 9.37 122.62 10.49L122.62 10.49Q122.62 11.68 121.82 12.49Q121.01 13.29 119.79 13.29ZM122.17 33L117.44 33L117.44 14.80L122.17 14.80L122.17 33ZM129.69 40L124.97 40L124.97 14.80L129.62 14.80L129.62 17.74Q130.36 16.23 131.70 15.32Q133.05 14.41 135.43 14.41L135.43 14.41Q137.32 14.41 138.95 15.17Q140.58 15.92 141.80 17.23Q143.03 18.54 143.73 20.28Q144.43 22.01 144.43 23.97L144.43 23.97Q144.43 26.59 143.22 28.75Q142.01 30.90 139.98 32.18Q137.95 33.45 135.43 33.45L135.43 33.45Q133.09 33.45 131.76 32.60Q130.43 31.74 129.69 30.30L129.69 30.30L129.69 40ZM134.66 29.18L134.66 29.18Q136.17 29.18 137.30 28.45Q138.44 27.71 139.07 26.51Q139.70 25.30 139.70 23.93L139.70 23.93Q139.70 22.50 139.07 21.31Q138.44 20.12 137.30 19.40Q136.17 18.68 134.66 18.68L134.66 18.68Q133.12 18.68 131.97 19.42Q130.81 20.16 130.18 21.34Q129.55 22.53 129.55 23.97L129.55 23.97Q129.55 25.37 130.18 26.56Q130.81 27.75 131.97 28.47Q133.12 29.18 134.66 29.18Z"></path></g>
        
      </svg>